<svg xmlns="http://www.w3.org/2000/svg" data-name="Layer 1" width="405.62375" height="385.76602" viewBox="0 0 405.62375 385.76602" xmlns:xlink="http://www.w3.org/1999/xlink"><path d="M774.59164,585.31234c-3.85646.02742-7.65569,1.01421-11.39454,1.89157-3.19376.72335-2.06614.47955-9.99108,2.453-4.66129,1.33318-13.18378,1.86494-25.308,2.20513-18.44184.73719-36.96122-.1664-55.30154,2.2961-19.93417,2.05283-49.84307,8.58789-59.4444,9.503-29.58744,2.85713-59.36475-.49617-89.03552.50038-10.73237-.21321-11.83756.5526-16.901-.99945-.2434-.23641-.481-.47481-.70832-.72717-.1213-.17458-.23812-.34269-.40927-.5857-4.96034-8.00022-9.5383-28.51244-10.46312-39.76338-1.44169-11.16933-1.23758-10.10751-3.06823-21.02882-.64371-2.984-.66824-6.15862-2.00524-8.93757,1.61073,3.91909-.04456-2.403-2.02791-3.058-3.22566-2.82919-8.57259-1.52673-10.69913,1.98163-7.12116,5.39321-8.63378,14.99506-8.806,23.567-.54007,13.35915,1.21859,26.65053,1.99864,39.96551.85863,9.282.56275,18.95305,3.405,27.897,6.094,15.9307,25.51316,17.97324,40.30029,19.51145,24.78374,2.51576,49.56222-.79561,74.21253-3.2324,22.87029-1.98993,45.854-2.00681,68.7501-3.63652,12.05749-.6507,24.148-.88224,36.164-2.13959,12.66375-1.20778,25.27-3.13351,37.99417-3.61991,24.40612-.16311,45.4948,2.76049,53.07981-26.427C788.12088,594.454,784.2966,585.73743,774.59164,585.31234ZM473.99185,554.37076c-.92008-5.74632-1.91373-15.52208,3.28-22.11767a6.12822,6.12822,0,0,0-.18776.596c-.01767.4-.01239.79864-.02479,1.19829.01187-.05565.0211-.11933.03455-.16759-.01846.07252-.02294.13251-.03534.19752-.00738.24683-.01.49326-.01529.74l-.0865-.01174c-.00527.04338-.00686.06949-.01318.11762.00316-.03916.00632-.07793.01-.11814l-.13-.01754c.01635.35165.02716.54732.03665.68313a3.79994,3.79994,0,0,0-.05274.54192c-.27267,10.61-.56169,21.2891-.38448,31.14055C475.46043,562.92424,474.60233,558.67354,473.99185,554.37076Z" transform="translate(-397.18813 -257.11699)" fill="#e14548"/><path d="M476.95671,534.80551c.03428-.28862.06144-.51212.10179-.72822l.00079-.02993a6.758,6.758,0,0,0-.10574.75763Z" transform="translate(-397.18813 -257.11699)" fill="#e14548"/><path d="M765.67674,419.33763c-1.96382-7.34043-10.05832-10.38124-17.03549-10.30015l.08992.06843c-3.36991-.281-7.03861.20213-10.23738.10667-8.095.03613-16.19058.11709-24.27058.64648-14.24758,1.06881-28.54395,1.31854-42.77544,2.609-13.01317,1.209-25.88183,3.52432-38.74706,5.76464-21.69415,3.80873-36.13529,4.61238-62.47439,8.40937-21.58867,2.984-33.31784,5.63424-54.17288,2.03819a119.85538,119.85538,0,0,1-19.80021-5.31238c-.16719-.06593-.33385-.13278-.50051-.19937.73363.31184.71148.36194-.6031-.2376-.01213-.005-.02347-.0116-.0356-.01661q-.16573-.06626-.33174-.13212c.10495.03956.1925.0745.28823.11168-3.42055-1.41347-6.46505-3.603-9.93676-4.88557-4.5537-1.59345-9.995,1.929-9.61082,6.94407,1.404,8.17942,7.64435,15.15843,14.73254,19.15175,10.98025,5.97667,23.44939,6.62908,35.68911,6.11894a91.21726,91.21726,0,0,0,11.40376,1.44881c2.95642.209,5.91126.27069,8.86373.22652,13.947,1.69181,27.96986-.08544,41.94161-.60455,10.821-.59123,21.66646-.23918,32.48426-.84136,11.24106-.58371,22.40538-2.035,33.56653-3.43835,13.02978-1.55627,26.12391-2.86373,39.26023-2.80228,16.92843.03942,33.782,1.76394,50.66794,2.73807.2972.02584.59466.04391.89212.06039a21.41433,21.41433,0,0,0,3.22145.2881c5.69028-.3953,10.46022-4.382,13.149-9.2382,1.86283-4.07124,1.275-2.60674,3.5822-10.18939A14.99137,14.99137,0,0,0,765.67674,419.33763Zm-19.92388,10.43345c-.07357.3001-.17484.59176-.25738.88922-.10153-.00844-.20384-.00448-.30511-.016l.2972.04-.004.01226c-1.61469-.2169-3.23174-.40993-4.85354-.56842l.17088-.01081C742.36659,429.90887,744.057,429.85876,745.75286,429.77108Z" transform="translate(-397.18813 -257.11699)" fill="#e14548"/><path d="M495.75272,423.1685c-.18038-.0766-.41877-.17233-.68221-.27465.01476.0062.02874.01438.04351.02044Q495.43363,423.04146,495.75272,423.1685Z" transform="translate(-397.18813 -257.11699)" fill="#e14548"/><path d="M412.87476,260.03439c-11.39.2823-11.36051,16.96917.00026,17.28232C424.26534,277.03455,424.2358,260.34767,412.87476,260.03439Z" transform="translate(-397.18813 -257.11699)"/><path d="M442.04976,257.117c-11.39.2823-11.36051,16.96905.00027,17.28233C453.44034,274.117,453.41081,257.43014,442.04976,257.117Z" transform="translate(-397.18813 -257.11699)"/><path d="M466.84854,257.117c-11.39005.2823-11.36025,16.96905.00027,17.28233C478.23912,274.117,478.20932,257.43014,466.84854,257.117Z" transform="translate(-397.18813 -257.11699)"/><path d="M781.61838,399.71755c-3.45008-13.535-2.86069-21.74254-4.65074-38.04031-.69988-7.98269-2.33328-15.89035-6.04945-23.052-4.43239-8.66015-12.60125-14.66582-20.6794-19.71621-15.87993-10.323-35.10684-4.77271-52.6476-3.54449-27.0722,1.951-54.2868,1.37589-81.33738,3.79818-14.0593.93115-42.08111,5.80354-49.02426,6.6797-29.24831,3.5499-58.62294,6.11221-87.83988,9.91909-1.57327.25039-3.13864.55089-4.70032.86127,1.90239.02611,3.80557.05433,5.70558.16192,27.91342,1.72873,55.88487,3.44837,83.86686,2.86254,17.3414-.56249,34.53248-3.13284,51.85674-3.98594,25.60968-1.51631,51.27025-1.77936,76.88863-3.00956,12.62658-.86865,35.77165-4.15233,40.56321-2.50126a36.7677,36.7677,0,0,1,4.09221,1.36521c-.60494-.28889-.7927-.44949.42589.1664.29588.11959.59861.22178.89159.34823-.19092-.05274-.39187-.12513-.59017-.20213.40294.1958.78189.36589,1.09913.49814q1.84569.87418,3.61965,1.88722c7.03255,4.48553,5.40547,3.04279,11.46916,9.037.51344.63949.75209.92535.80853.98033.17615.24261.35732.48206.5166.73627a40.43763,40.43763,0,0,1,2.80875,5.19636c3.5756,9.7871,3.15631,13.43892,3.75044,16.1025,1.45619,11.58862,1.673,23.34931,4.55106,34.72776,4.65945,19.21635,7.71977,21.51351.82594,28.67791-17.0864,14.14342-63.621,12.70226-100.38734,13.44868-12.09784.34414-24.22522.17563-36.28693,1.29678-17.32558,2.0647-34.6348,4.44347-52.10805,4.784-22.55226.6267-45.08975-.91085-67.5977-2.14249-9.09158-.32871-20.815-3.50639-24.74815-7.54942-6.62354-6.61351-8.44074-11.34218-11.67617-23.26874-5.021-17.41775-8.90118-40.56677-11.51821-55.64516a77.89117,77.89117,0,0,1-.80985-13.77014c.10522-2.46659.11524-5.13848,1.63947-7.21227,1.0667-1.45448,2.804-1.92691,4.47459-2.325,3.448-.868,6.94869-1.51236,10.42752-2.23927-6.3332.80128-15.69086-1.57723-18.79522,5.55948-2.6943,7.32619-2.4923,15.42029-2.14579,23.1187.567,8.57629,1.17508,17.15417,2.13234,25.6971a277.37112,277.37112,0,0,0,7.73981,42.14914c6.71558,18.62711,20.46976,26.34767,39.5068,28.21788,27.53316,1.83725,55.23905,3.97776,82.81546,1.874,20.52751-1.078,35.01586-5.79484,55.35508-6.57317,23.22761-.91546,46.47394-1.12762,69.70446-1.90371,15.95851-1.162,32.32551-1.72715,47.52112-7.18879,10.83521-3.91949,21.71578-12.35087,22.41618-24.69475C785.9089,413.9621,783.1885,406.81366,781.61838,399.71755Z" transform="translate(-397.18813 -257.11699)"/><path d="M738.08847,331.6821c-.14135-.05722-.284-.11076-.42589-.1664.20675.09876.4636.21044.72731.3125-.09467-.046-.18671-.08808-.28217-.13647Z" transform="translate(-397.18813 -257.11699)"/><path d="M798.89005,566.21017c-3.45008-13.535-2.86069-21.74255-4.65074-38.04032-.69988-7.98269-2.33328-15.89035-6.04945-23.052-4.43239-8.66015-12.60125-14.66583-20.6794-19.71622-15.87993-10.323-35.10684-4.77271-52.6476-3.54449-27.0722,1.951-54.2868,1.37589-81.33738,3.79818-14.0593.93115-42.08111,5.80354-49.02426,6.67971-29.24831,3.54989-58.62294,6.11221-87.83987,9.91909-1.57328.25039-3.13865.55088-4.70032.86126,1.90238.02611,3.80556.05433,5.70557.16192,27.91343,1.72873,55.88487,3.44837,83.86686,2.86254,17.3414-.56248,34.53248-3.13284,51.85674-3.98593,25.60968-1.51632,51.27025-1.77937,76.88863-3.00956,12.62658-.86866,35.77165-4.15234,40.56321-2.50127a36.7677,36.7677,0,0,1,4.09221,1.36521c-.60494-.28889-.7927-.44948.42589.1664.29588.1196.59862.22178.89159.34823-.19092-.05274-.39186-.12513-.59017-.20213.40294.1958.78189.36589,1.09913.49814q1.84569.87419,3.61965,1.88722c7.03255,4.48553,5.40547,3.04279,11.46916,9.037.51344.63949.75209.92535.80853.98033.17615.24261.35732.48206.5166.73627a40.43763,40.43763,0,0,1,2.80875,5.19636c3.5756,9.7871,3.15631,13.43892,3.75044,16.1025,1.45619,11.58862,1.673,23.34931,4.55106,34.72776,4.65945,19.21635,7.71977,21.51351.82594,28.67791-17.0864,14.14342-63.621,12.70226-100.38734,13.44868-12.09784.34414-24.22522.17563-36.28693,1.29678-17.32557,2.0647-34.6348,4.44347-52.10805,4.784-22.55226.6267-45.08975-.91084-67.5977-2.14249-9.09157-.32871-20.815-3.50638-24.74815-7.54941-6.62353-6.61352-8.44074-11.34219-11.67617-23.26875-5.021-17.41774-8.90118-40.56677-11.51821-55.64516a77.89116,77.89116,0,0,1-.80984-13.77014c.10521-2.46659.11524-5.13847,1.63946-7.21227,1.0667-1.45448,2.804-1.92691,4.47459-2.325,3.448-.868,6.94869-1.51237,10.42752-2.23928-6.3332.80128-15.69085-1.57723-18.79522,5.55948-2.6943,7.32619-2.4923,15.42029-2.14579,23.1187.567,8.57629,1.17508,17.15417,2.13234,25.6971a277.3709,277.3709,0,0,0,7.73981,42.14914c6.71558,18.62711,20.46976,26.34767,39.5068,28.21788,27.53316,1.83725,55.23905,3.97776,82.81546,1.874,20.52751-1.078,35.01586-5.79484,55.35508-6.57317,23.22761-.91546,46.47394-1.12761,69.70446-1.90371,15.95851-1.162,32.32551-1.72715,47.52112-7.18879,10.83521-3.91948,21.71578-12.35087,22.41619-24.69475C803.18057,580.45472,800.46017,573.30627,798.89005,566.21017Z" transform="translate(-397.18813 -257.11699)"/><path d="M755.36014,498.17471c-.14135-.05722-.284-.11075-.42589-.1664.20675.09876.4636.21044.72731.3125-.09467-.046-.18671-.08808-.28217-.13647Z" transform="translate(-397.18813 -257.11699)"/><path d="M712.41392,272.75893c-20.01012-.76225-40.03553-1.11456-60.04723-.18038-33.00456.3622-65.79,4.36172-98.73732,5.78271-30.30367,1.65358-60.6018,3.3475-90.92657,4.56385-21.94995,1.15319-43.748,4.08509-65.51467,7.02846,19.70975.63369,39.433.82672,59.12768,1.87694,25.2803,1.63261,50.57934,3.04635,75.92452,2.51906,33.44284-.21386,66.71533-3.78538,100.05849-5.95451,46.73423-3.77431,93.42837-7.93153,140.03759-13.044C752.40936,273.62652,732.4032,273.16833,712.41392,272.75893Z" transform="translate(-397.18813 -257.11699)"/></svg>