<svg xmlns="http://www.w3.org/2000/svg" data-name="Layer 1" width="342.57881" height="372.93482" viewBox="0 0 342.57881 372.93482" xmlns:xlink="http://www.w3.org/1999/xlink"><path d="M573.71989,345.49983c-2.24138-8.5545-7.93422-15.72219-13.5336-22.5669s-11.38856-13.9002-13.88874-22.38267-.83851-18.86168,6.30726-24.07141,19.66657-1.72817,20.94325,7.02245l9.80088,67.17681a97.80086,97.80086,0,0,1,17.24716-82.637c5.50219-7.096,18.58911-5.52484,22.2553,2.6719a55.35683,55.35683,0,0,1-4.53612,52.52269C608.06325,338.45224,589.67786,347.8186,573.71989,345.49983Z" transform="translate(-428.7106 -263.53259)" fill="#e14548"/><path d="M622.02624,283.65462c-.037-.04558-.07769-.088-.115-.13359.04924.06192.09876.12212.15151.18333Z" transform="translate(-428.7106 -263.53259)"/><path d="M770.04438,386.54711c-2.25635-10.41295-14.56121-14.53834-19.956-15.53-9.71387-1.78346-19.60843-1.71982-29.4435-1.4532-13.5462.27263-27.09533.61723-40.6449.4101-28.0705-.4124-56.04969-2.88276-84.06571-4.513a85.915,85.915,0,0,0,14.4914-8.9662c13.50291-10.27778,22.23274-26.08915,25.32355-42.64661,1.52617-7.72873,2.17537-15.80033.41964-23.54454-1.83134-8.78745-7.77754-19.33944-17.83887-19.46616-6.40926.41913-10.98281,5.81081-14.31186,10.80586-5.30173,9.30907-8.61079,19.52292-11.56944,29.81877-.82451-2.08979-1.76612-4.136-2.76472-6.14423-3.0028-5.5009-6.17231-11.28762-11.48637-14.87433-7.27533-4.87479-17.461-5.59121-25.103-1.14688-11.37736,6.90192-11.64305,22.55633-8.16478,34.017,2.61378,9.34233,8.148,17.47485,14.05112,25.04462,4.23254,5.55752,8.79011,10.84627,13.53323,15.9666-14.10659-.63544-28.2147-1.28793-42.33548-1.38712-23.53114.21071-47.06069,1.12409-70.5509,2.5125q-1.80935.11225-3.61811.22992,3.09384.59322,6.19124,1.16767c25.60645,4.83149,48.83219,7.24079,76.078,8.471,21.38179.82436,42.76817,1.65474,64.12444,3.00531,27.17353,1.65073,54.3576,3.65036,81.59643,3.57955,20.1585.37871,40.62577-1.58279,60.67806-.09561a32.10106,32.10106,0,0,1,8.14485,1.73286c.28331.10206.56161.21731.84156.32826.6492.31449,1.83.88585,2.34465,1.20063.41125.24483.81239.50557,1.20909.77319,2.22646,1.99245,1.4393,1.37522,2.37418,2.71977,2.08735,7.13415,1.24851,3.27136,1.8719,10.63428a151.06926,151.06926,0,0,1-1.09234,22.94823c-.36774,2.529-.78479,5.05195-1.34361,7.54611-.68382,2.96733-.7661,2.89652-.83483,3.29744-.105.375-.23981.75871-.34366,1.03766-.26339.52047-.64691,1.14315-.81927,1.43786a6.85664,6.85664,0,0,1-.54134.53883c-.01383.00874-.02666.01906-.04056.02766-.10041.02523-.2009.0506-.3026.06938-1.14975.08873-2.30566.0559-3.45806.0301a145.65749,145.65749,0,0,0-26.71957,1.26285c-.06436-.20785-.1371-.41283-.2001-.62125.03024.21158.06644.42215.09711.63358-4.04053.48822-8.076,1.03292-12.10718,1.55411a294.12884,294.12884,0,0,1-31.45753,2.24331c-19.39708.012-38.71509-2.19687-58.09905-2.503-20.96947-.04071-41.8846,1.75422-62.8469,1.93139-17.96408.16183-38.869-1.20694-53.22857-3.44451-13.00465-1.893-25.986-4.15349-39.13-4.82232-5.006-.24655-10.01547-.49912-15.02893-.48407-4.544.02451-9.07916.626-13.62282.42329-.08808-.00373-.17531-.01806-.2631-.02537-.40495-.09361-.84565-.22175-1.18129-.32324-.04443-.02437-.08815-.05017-.13187-.076a10.741,10.741,0,0,1-.205-1.10316c.00179-10.45625-.70575-35.12373.15323-50.33721.32646-5.24332,1.68936-14.23532,7.03381-17.981,2.77775-1.44675,3.55947-.92441,7.017-1.35057,6.01191-.44421,12.04132-.50671,18.06635-.5318a130.21256,130.21256,0,0,0-21.15029-3.61967c-8.82673-1.2597-14.11326,7.76384-16.67113,14.93955-2.0609,6.67832-2.70207,13.72187-3.35342,20.65447-.63486,8.46121-1.054,16.94779-.92449,25.43465.57395,12.92574-2.01761,24.849,15.704,23.37511,25.05715-2.25449,45.13094,1.66936,68.44276,4.68557a370.98044,370.98044,0,0,0,53.76094,2.77109q4.485-.10428,8.97086-.27364c-2.17422,21.88277-5.92986,43.64814-6.471,65.65691-.45841,19.08545-.25623,38.17433-.128,57.26193-.03533,16.19982-.12127,32.40051,1.22629,48.55862.03684.65521.081,1.31029.12063,1.96536-2.35762-.13187-4.7146-.27235-7.07358-.38674-16.46035-1.01343-32.94306-1.60055-49.40828-2.51651-8.37241-.542-16.73636-1.28464-25.125-1.52559-5.3357-.18993-10.6858.339-16.01276-.00129a5.74576,5.74576,0,0,1-1.90215-.54442c-.10149-.09317-.20125-.18778-.29514-.28855a3.66331,3.66331,0,0,1-.42537-.82608,109.10425,109.10425,0,0,1-2.20934-13.20884q-2.90106-25.01186-3.81111-50.2029c-.462-12.51-.73061-25.05851.73069-37.51753C466.55058,492.46585,461.48,502.28141,463,477c-5.46507,24.09841-2.80543,12.05574-5.99515,36.68136-1.81543,10.901-1.64478,21.96519-1.18193,32.96872q.7161,20.6473,2.791,41.21935c.7428,7.35747,1.54953,14.71336,2.64574,22.02726,1.08295,6.89648,1.98822,14.29437,10.49329,15.03187,4.07924.51445,8.20635.05346,12.30472.09991,5.56841-.09289,11.12887.26762,16.68324.61881,19.88386,1.48717,39.821,1.9903,59.72462,3.14249,28.231,1.379,56.388,3.73148,84.55178,6.06008,40.2141,3.64275,74.30031,3.1273,103.965-23.19665,17.37839-15.61584,18.33706-28.14783,14.46582-50.1973-3.55862-19.23538-8.7198-38.16244-14.11757-56.95274-4.18272-13.40709-9.33674-26.47847-14.24255-39.62954-1.567-4.38857-2.715-8.91245-4.20294-13.32739-.62569-1.82418-1.2817-3.63789-1.93706-5.45188,2.97177-.32582,5.9467-.61809,8.9303-.82121,3.84444-.26318,7.70213-.25085,11.55245-.14778,3.14127.06622,6.32526.39849,9.4183-.30962,7.96395-2.87946,8.72732-10.7544,10.10334-17.10618a149.4545,149.4545,0,0,0,2.03015-19.0261A84.52211,84.52211,0,0,0,770.04438,386.54711ZM582.62167,340.17418c-.0951.627-.18785,1.25439-.30238,1.87821a96.65924,96.65924,0,0,1-3.37893,13.47991c-1.589,4.75136-1.85191,4.74162-2.65793,7.14116-.20239.59846-.42579,1.19376-.61966,1.79236l-.19244-.0086c-9.67338-15.79173-20.29067-34.25436-21.41426-45.70238-.74366-6.091-.61587-8.61143.05283-11.8352,1.32075-4.51987.30173-2.23643,2.50418-6.08731.03706-.04229.07074-.0873.10837-.12916,1.63855-1.48015.15151-.65134,3.196-2.17994a11.79589,11.79589,0,0,1,2.29054-.643,12.266,12.266,0,0,1,3.66583.133c4.54689,1.16839,2.39805.14593,6.01407,2.45933l.14449.12169c2.87078,2.76794,1.55956,1.35516,4.44432,5.85869,3.51418,6.25961,3.58972,6.42431,5.24009,11.34138C583.22393,323.94368,583.69681,330.68822,582.62167,340.17418Zm4.959,24.83748c1.31452-2.86655,2.54347-5.77712,3.578-8.75649.29643-.87209.60175-1.74189.86478-2.62474.86966-2.16647,1.15326-4.647,1.8064-6.847a82.65982,82.65982,0,0,0,1.25432-8.3342c3.35535-11.60786,6.14114-23.382,9.93476-34.86083,3.11074-8.59452,3.67408-11.49877,8.61659-18.93437a20.42268,20.42268,0,0,1,2.85531-2.92232c.42522-.27622.95831-.55917,1.31208-.74122.226-.07454.42967-.133.58-.17459.0405-.00072.08049.00057.121.00072.20254.04974.40208.1065.6.17273.2621.14033.60362.331.91675.53223.24454.21573.60669.54427.92305.8761.34216.35693.65407.74108.96763,1.12338-.35427-.44465-.57165-.82193-.148-.24125-.03075-.03655-.06121-.07482-.09188-.10923.12205.15854.23623.32295.35484.48407.00975.012.02064.02322.03039.03526l.02544.03613-.01928-.02165c.03648.04974.07332.09934.10944.14922.0334.04673.05383.07382.0777.10607.058.08142.12019.15969.17717.24168,2.14734,3.51016,1.438,2.11917,2.92095,7.05688.95789,4.71352.7833,3.43563.92929,9.38247.28783,11.71994-4.27231,29.426-8.18276,36.90718-4.82677,10.10291-10.12713,16.421-18.30688,24.12135-1.39687,1.29166-2.83582,2.537-4.28565,3.76861Q591.542,365.20862,587.58067,365.01166Zm69.70912,263.51493C628.58709,626.49371,604.7303,592.63281,576,591c1.36211-22.67488-.26062-14.16907.71827-36.86832.76193-17.08926.69571-34.187.32954-51.28441.06794-18.11244-.00659-36.23162-1.107-54.3161,23.48483-.85819,46.985-2.59134,70.45414-.55789,12.88783.81275,25.81064,1.6556,38.73129,1.70462-2.31935,27.73673-4.7652,55.5176-4.87249,83.36929.25788,29.90205,2.63829,59.75823,5.83052,89.47824q.3553,3.16284.71478,6.32569A204.388,204.388,0,0,1,657.28979,628.52659Zm73.39639-162.43944c2.97622,12.71216,6.47742,25.299,9.98959,37.87188,4.2028,16.00044,8.76165,31.91816,12.49206,48.03743,3.1807,14.149,6.16616,30.35845,2.13731,39.41983C749.7608,603.413,737.02119,613.228,723.865,619.664c-11.03005,5.5181-23.52677,8.21365-36.734,9.16573.03483-.70395.0731-1.40748.10392-2.11157C689.93706,567.74174,708.97082,568.86363,704,510c3.84544.014-11.14671-60.35592-7.30263-60.50629,10.244-.47145,20.38226-2.05022,30.56035-3.217C728.357,452.88762,729.55851,459.48323,730.68618,466.08715Z" transform="translate(-428.7106 -263.53259)"/><path d="M514.18536,512.93011c-.832-22.21332-1.6546-44.43968-3.25616-66.61243-2.64467,30.7879-5.4951,61.67744-4.6749,92.61.66239,11.92851,1.50065,23.85874,2.85094,35.73106,1.25252,10.74479,2.58353,17.96035,3.42043,29.49138q.27166,3.8754.6206,7.74492.14654-2.04413.29564-4.08812c1.52946-16.4038.47124-32.891.95832-49.3351C514.36712,543.29186,514.51411,528.10732,514.18536,512.93011Z" transform="translate(-428.7106 -263.53259)"/><path d="M639.91628,529.04564c-.77677-16.14306-2.456-32.22405-3.92041-48.31465-.9439-10.85158-1.50251-21.73355-2.48362-32.582-2.7999,28.52367-2.9656,57.19756-1.75479,85.81541.88707,28.9603,3.32647,57.83415,6.91139,86.58216.93344-9.84991,1.045-32.5159,1.35831-46.74864C640.25565,558.88147,640.77748,543.95223,639.91628,529.04564Z" transform="translate(-428.7106 -263.53259)"/></svg>