<svg xmlns="http://www.w3.org/2000/svg" data-name="Layer 1" width="593.60099" height="666.40272" viewBox="0 0 593.60099 666.40272" xmlns:xlink="http://www.w3.org/1999/xlink"><path d="M446.45632,464.43773c-3.44061-18.32352-6.89676-36.89818-5.51123-55.49037s8.19813-37.51967,22.2584-49.76295c18.86507-16.42716,46.13407-17.72291,71.14452-18.19186l109.74758-2.05778c26.07432-.48889,53.84-.53113,75.89536,13.38541,34.56867,21.81219,41.86283,68.24094,45.732,108.93238-30.70884-36.38085-67.70225-75.85564-115.31072-76.03477-38.03715-.14311-70.67251,25.20433-101.52692,47.44956s-68.19916,43.44739-104.98172,33.75779" transform="translate(-303.1995 -116.79864)" fill="#e14548"/><path d="M857.60955,730.44355c-9.407-75.95919,55.34166-225.93583-57.86658-239.32962-145.07755-.81527-316.98418-50.65642-447.24532,27.446-32.97123,60.751-12.09229,138.14028-17.76241,205.34726,7.10182-62.14944-6.66853-139.15041,21.30245-197.72474,111.94186-70.36113,263.66189-23.82913,389.15412-28.46578C913.32707,482.747,844.79322,624.11528,857.60955,730.44355Z" transform="translate(-303.1995 -116.79864)"/><path d="M794.03826,499.02314C829.098,256.9678,628.31571,306.25382,464.38918,326.21937c-68.929,20.1694-36.06891,100.134-51.49932,151.2775,14.31891-36.078,1.70727-77.4171,16.83707-113.11794,40.26945-58.40727,133.00158-30.67063,194.63764-40.80657C753.84225,304.29481,804.9604,376.44192,794.03826,499.02314Z" transform="translate(-303.1995 -116.79864)"/><path d="M578.06463,257.23163c-11.98209,22.70871-11.123,46.408-2.75548,69.94486C581.24432,305.68622,583.17693,276.07148,578.06463,257.23163Z" transform="translate(-303.1995 -116.79864)"/><path d="M604.634,266.98994c-13.06636,15.6913-7.52827,37.47924,9.091,47.92224C610.93737,300.18281,608.615,281.47515,604.634,266.98994Z" transform="translate(-303.1995 -116.79864)"/><path d="M606.09979,271.54023c24.98867-2.77511,16.81446-34.81926,19.445-51.60168,29.73117-43.4033-7.6042-82.35476-45.50564-103.13991,6.19409,23.922,19.556,68.61588-17.06563,93.3426-20.62736,11.94767-.28222,30.91178.93846,47.32965-3.76409-28.83738-16.15034-33.19752,14.22544-51.34863,16.37925-15.15121,23.39858-39.85523,21.69455-60.39531,25.41544,16.39338,32.9515,44.25983,18.58581,70.54629C614.7843,234.6741,630.94217,264.09913,606.09979,271.54023Z" transform="translate(-303.1995 -116.79864)"/><path d="M772.299,367.41962C660.9051,391.25375,545.69691,379.02,433.95059,392.41244,544.46205,393.82346,667.13617,407.71257,772.299,367.41962Z" transform="translate(-303.1995 -116.79864)"/><path d="M793.7619,410.403c-113.7624,42.17185-237.25781,11.55881-354.89048,15.61518C553.281,436.57551,686.98173,469.25921,793.7619,410.403Z" transform="translate(-303.1995 -116.79864)"/><path d="M859.218,560.50263c-163.16411,31.44365-333.45009-39.60926-496.21391,2.28231C525.755,535.45248,698.96584,609.22876,859.218,560.50263Z" transform="translate(-303.1995 -116.79864)"/><path d="M866.80291,617.41865c-111.95214,14.61553-226.39352,31.3765-338.835,13.195-53.39679-7.50324-109.25781-35.95082-162.54691-14.63595,63.90214-18.49033,125.81687,24.75681,189.69669,29.78194C657.812,660.60122,771.41657,639.60611,866.80291,617.41865Z" transform="translate(-303.1995 -116.79864)"/><path d="M855.923,738.2497c-22.32449-61.80617-65.14545-6.00654-76.23743-22.08516-30.55622-50.61013-75.13584,26.02635-103.79976-1.95077-26.34422-36.31589-63.31714-23.58077-91.46875,1.952-41.42322-41.55287-59.56852-31.72317-103.5735,1.67631-24.20139-38.39994-81.18782-45.15191-90.87891,9.55377,5.57037-24.33086-34.58359-55.44245-42.76215-20.19526,2.07-19.25177,29.76847-16.97714,34.80312-.0614,5.6802,16.2887,3.12356,34.3902,4.79082,51.419,6.418-27.0021,12.435-69.43728,49.72541-64.07289,25.35135-1.13354,26.1293,38.27658,49.50849,32.21547,85.46328-63.22578,55.44133,1.86644,103.53308.80644,16.55038-9.21692,29.22528-27.8022,50.44859-24.53571,14.79329,1.65755,22.47868,15.78471,34.38857,24.14632,29.46872,21.89487,51.18092-27.09,82.266-19.3262,14.485-.38014,16.70347,19.63375,30.39894,18.7761C809.12261,708.62017,847.13845,704.84764,855.923,738.2497Z" transform="translate(-303.1995 -116.79864)"/><path d="M851.98162,737.85273c57.13462-5.629,56.63542,39.92178-6.23805,34.7369-82.30232,5.115-164.29035-4.87953-246.25414-11.68761-60.01071-4.65628-120.63529-7.6522-180.35742-2.5537-35.96226-2.93879-98.75828,33.42622-115.06446-14.18808-6.77491-19.83611,38.6969-29.04526,10.44734-21.2727-52.0226,72.92894,90.25216,40.8768,124.92925,42.47213,120.07875-2.16047,244.35,22.56438,364.45057,17.03264,29.77228-4.19669,65.12235,1.30173,90.32027-15.49718C906.62722,740.8169,871.35356,730.59665,851.98162,737.85273Z" transform="translate(-303.1995 -116.79864)"/><path d="M825.31561,508.36591c38.32991-12.85845,10.46965-63.12393,12.675-35.45965,7.07427-6.03809,4.08075-17.60559-3.42335-21.61541-5.47373-3.57837-13.17456-1.43057-17.02217,1.4366,3.134-13.94528-17.65366-1.707-5.51-3.55759,4.79631,22.85892,5.26413,4.86044,17.11625,12.93356C835.05082,479.41266,841.65184,490.65192,825.31561,508.36591Z" transform="translate(-303.1995 -116.79864)"/><path d="M420.5285,440.40107c-33.73866-22.28121-56.1803,30.62879-35.74313,11.85059-9.11467-1.85354-16.3841,7.6265-14.92262,16.00941.55264,6.5168,6.9858,11.25911,11.61551,12.52676-12.90958,6.11158,9.50943,14.96728.58976,6.53176,15.05627-17.857.58517-7.14234-.35022-21.45044C392.29376,450.10669,395.662,438.7651,420.5285,440.40107Z" transform="translate(-303.1995 -116.79864)"/><path d="M596.56463,189.36884c-11.47991,19.95166-9.90723,40.444-1.028,60.853C600.93475,231.52216,602.13494,205.75654,596.56463,189.36884Z" transform="translate(-303.1995 -116.79864)"/><path d="M732.22479,151.04413c31.79864-8.89846,6.25447,35.9247-7.94064,8.60141-5.32573-33.74506-11.76326,19.503,11.19294,19.345C771.98059,185.30094,758.8053,124.286,732.22479,151.04413Z" transform="translate(-303.1995 -116.79864)"/><path d="M444.24334,240.82294c31.79669-8.89835,6.25539,35.92364-7.94162,8.60141-5.32456-33.74658-11.763,19.50263,11.19392,19.345C483.99834,275.07884,470.82328,214.06459,444.24334,240.82294Z" transform="translate(-303.1995 -116.79864)"/><path d="M816.05291,345.50849c34.58724-7.84082,1.9929,37.71982-9.01707,6.074-6.1376-29.39668-8.37281,35.21425,22.51283,20.90985C857.77018,364.87166,834.30892,322.28585,816.05291,345.50849Z" transform="translate(-303.1995 -116.79864)"/></svg>